<?xml version="1.0" encoding="UTF-8" standalone="no"?>
<svg
   version="1.1"
   width="526px"
   height="338px"
   id="svg18"
   sodipodi:docname="Andre3.svg"
   inkscape:version="1.3.2 (091e20e, 2023-11-25, custom)"
   xmlns:inkscape="http://www.inkscape.org/namespaces/inkscape"
   xmlns:sodipodi="http://sodipodi.sourceforge.net/DTD/sodipodi-0.dtd"
   xmlns="http://www.w3.org/2000/svg"
   xmlns:svg="http://www.w3.org/2000/svg">
  <defs
     id="defs18" />
  <sodipodi:namedview
     id="namedview18"
     pagecolor="#ffffff"
     bordercolor="#000000"
     borderopacity="0.25"
     inkscape:showpageshadow="2"
     inkscape:pageopacity="0.0"
     inkscape:pagecheckerboard="0"
     inkscape:deskcolor="#d1d1d1"
     inkscape:zoom="1.1494083"
     inkscape:cx="273.61905"
     inkscape:cy="184.87773"
     inkscape:window-width="1920"
     inkscape:window-height="991"
     inkscape:window-x="-9"
     inkscape:window-y="-9"
     inkscape:window-maximized="1"
     inkscape:current-layer="svg18" />
  <path
     d="M193.911 171.401 C222.289 143.433, 226.347 139.041, 229.236 133.173 C232.263 127.025, 232.5 125.817, 232.5 116.522 C232.5 107.741, 232.168 105.792, 229.82 100.782 C226.057 92.7533, 219.272 85.8568, 211.734 82.3995 C206.305 79.9092, 204.338 79.5457, 196.5 79.5848 C188.667 79.624, 186.798 79.9912, 182.083 82.4166 C175.179 85.9681, 166.822 93.8502, 164.499 99.0025 C163.507 101.201, 162.363 103, 161.957 103 C161.55 103, 160.485 101.17, 159.59 98.9341 C157.366 93.3742, 149.699 85.9806, 142.487 82.4396 C137.135 79.8118, 135.492 79.5004, 127 79.5042 C118.601 79.5079, 116.83 79.8367, 111.72 82.3411 C96.5955 89.7531, 87.9288 106.28, 90.6958 122.433 C91.2878 125.89, 92.5756 130.469, 93.5576 132.609 C94.674 135.042, 105.895 147.179, 123.504 165 C138.993 180.675, 153.614 195.637, 155.995 198.25 C158.377 200.862, 160.669 203, 161.088 203 C161.507 203, 176.278 188.781, 193.911 171.401 Z "
     stroke="black"
     stroke-width="1"
     fill="none"
     id="path1"
     style="fill:#ff0000" />
  <path
     d="M450.371 243.5 C461.866 241.768, 471.962 238.927, 480.75 234.952 C482.833 234.01, 484.917 233.068, 487 232.125 C487 226.771, 487 221.417, 487 216.063 C487 207.228, 486.768 200, 486.485 200 C486.202 200, 483.614 201.319, 480.735 202.931 C454.784 217.463, 424.265 218.746, 399.556 206.345 C377.181 195.116, 361.381 174.385, 356.377 149.69 C354.406 139.963, 354.966 120.788, 357.492 111.5 C363.615 88.9891, 380.822 68.6918, 402.5 58.4076 C415.166 52.399, 424.919 50.6125, 441.419 51.2787 C457.033 51.9093, 465.727 54.1238, 477.863 60.5629 C482.462 63.0033, 486.512 65.0004, 486.863 65.001 C488.083 65.0029, 486.959 33.5634, 485.696 32.3698 C483.789 30.5677, 471.937 26.1998, 462.853 23.9516 C452.221 21.32, 432.416 20.3501, 420.843 21.8944 C372.981 28.2815, 332.015 66.4406, 322.884 113.14 C321.126 122.132, 321.395 146.803, 323.348 155.638 C336.399 214.695, 390.983 252.452, 450.371 243.5 Z "
     stroke="black"
     stroke-width="1"
     fill="none"
     id="path2" />
  <path
     d="M401.8 279.8 C403.673 277.927, 403.26 275, 401.122 275 C398.723 275, 396.604 277.525, 397.357 279.487 C398.054 281.304, 400.149 281.451, 401.8 279.8 C401.8 279.8, 401.8 279.8, 401.8 279.8 Z "
     stroke="black"
     stroke-width="1"
     fill="none"
     id="path3" />
  <path
     d="M144 294.129 C144 293.649, 145.762 291.287, 147.916 288.879 C150.864 285.582, 152.121 284.781, 153.001 285.635 C154.851 287.431, 151.662 292.574, 147.881 293.892 C144.056 295.225, 144 295.229, 144 294.129 Z "
     stroke="black"
     stroke-width="1"
     fill="none"
     id="path4" />
  <path
     d="M152.215 305.098 C155.834 301.9, 159.675 296, 158.138 296 C157.602 296, 156.183 297.586, 154.985 299.524 C151.28 305.519, 142.047 308.291, 141.17 303.671 C140.385 299.532, 141.851 297.28, 145.736 296.655 C152.677 295.538, 158.249 289.203, 155.995 284.991 C152.155 277.815, 137 290.898, 137 301.389 C137 306.089, 139.178 308, 144.537 308 C147.964 308, 149.653 307.362, 152.215 305.098 C152.215 305.098, 152.215 305.098, 152.215 305.098 Z "
     stroke="black"
     stroke-width="1"
     fill="none"
     id="path5" />
  <path
     d="M456.517 292.25 C460.59 285.84, 465 282.885, 465 286.566 C465 289.229, 463.07 291.912, 460.02 293.49 C455.584 295.783, 454.513 295.404, 456.517 292.25 Z "
     stroke="black"
     stroke-width="1"
     fill="none"
     id="path6" />
  <path
     d="M471.679 304.606 C470.82 302.366, 472.539 297.394, 476.082 291.872 C481.882 282.834, 486.526 282.889, 483.514 291.959 C480.56 300.852, 473.24 308.674, 471.679 304.606 C471.679 304.606, 471.679 304.606, 471.679 304.606 Z "
     stroke="black"
     stroke-width="1"
     fill="none"
     id="path7" />
  <path
     d="M445.104 305.324 C445.972 304.518, 446.84 303.712, 447.708 302.905 C448.264 303.755, 448.821 304.604, 449.377 305.453 C450.717 307.498, 451.855 308, 455.155 308 C459.389 308, 465.916 304.82, 466.1 302.668 C466.154 302.026, 466.501 302.576, 466.869 303.891 C467.237 305.206, 468.454 306.89, 469.574 307.633 C471.331 308.8, 472.146 308.71, 475.549 306.975 C478.047 305.701, 479.621 305.362, 479.849 306.048 C480.592 308.276, 484.99 309.056, 488.009 307.495 C491.184 305.853, 497.617 297.268, 496.487 296.18 C496.099 295.806, 495.043 296.606, 494.141 297.959 C490.72 303.085, 487.758 306, 485.97 306 C481.644 306, 482.548 303.242, 492.991 284.586 C496.846 277.699, 500 271.793, 500 271.462 C500 271.132, 499.007 271.005, 497.794 271.18 C495.904 271.454, 491.625 277.473, 487.616 285.5 C487.341 286.05, 486.618 285.712, 486.008 284.75 C484.534 282.421, 480.464 282.533, 477.001 284.999 C475.457 286.099, 471.901 290.573, 469.098 294.941 C463.511 303.651, 460.92 306, 456.9 306 C453.209 306, 451.576 303.771, 452.73 300.309 C453.367 298.398, 454.547 297.365, 456.575 296.943 C461.673 295.883, 465.676 293.197, 467.029 289.929 C468.695 285.909, 467.405 283.611, 463.248 283.194 C459.139 282.782, 453.913 287.435, 450.384 294.647 C447.07 301.421, 442.649 306, 439.423 306 C436.088 306, 436.37 304.458, 440.969 297.54 C445.77 290.318, 447.419 286.535, 446.645 284.518 C445.882 282.528, 441.572 282.579, 438.465 284.615 C437.109 285.503, 436 286.016, 436 285.753 C436 285.491, 437.766 282.065, 439.924 278.138 C443.788 271.108, 443.812 271, 441.51 271 C439.519 271, 437.672 273.675, 429.086 288.993 C423.539 298.89, 419 307.215, 419 307.493 C419 307.772, 420.012 307.998, 421.25 307.996 C423.003 307.993, 424.232 306.577, 426.817 301.578 C429.941 295.535, 439.552 285, 441.94 285 C443.975 285, 442.95 287.553, 437.993 294.828 C432.48 302.918, 431.718 306.563, 435.25 307.944 C438.362 309.161, 442.02 308.188, 445.104 305.324 Z "
     stroke="black"
     stroke-width="1"
     fill="none"
     id="path8" />
  <path
     d="M353 294.18 C353 292.649, 360.148 285, 361.578 285 C365.087 285, 361.183 292.392, 356.881 293.892 C353.077 295.218, 353 295.223, 353 294.18 Z "
     stroke="black"
     stroke-width="1"
     fill="none"
     id="path9" />
  <path
     d="M339.401 307.606 C341.237 306.839, 343.472 305.164, 344.369 303.883 C345.612 302.109, 346 301.948, 346 303.206 C346 306.197, 348.917 308, 353.755 308 C357.959 308, 358.78 307.572, 363.022 303.171 C365.582 300.515, 369.203 295.565, 371.069 292.171 C374.326 286.247, 376.008 285.084, 378.775 286.84 C379.75 287.458, 379.456 288.512, 377.525 291.324 C376.136 293.346, 373.875 296.638, 372.5 298.64 C369.354 303.22, 369.341 305.522, 372.451 307.56 C375.537 309.582, 378.42 308.776, 382.9 304.64 C384.77 302.913, 385.987 302.053, 385.604 302.729 C384.649 304.415, 386.577 307.731, 388.949 308.484 C393.28 309.858, 396.554 306.764, 404.802 293.5 C408.037 288.297, 413.081 283.905, 411.519 287.651 C411.095 288.668, 410.081 292.65, 409.266 296.5 C408.451 300.35, 407.328 304.062, 406.77 304.75 C405.152 306.743, 403.334 306.2, 403.421 303.75 C403.515 301.07, 401.19 300.752, 399.626 303.231 C396.836 307.654, 406.338 309.945, 413.058 306.47 C416.19 304.85, 422.436 297.103, 421.425 296.092 C421.101 295.768, 420.19 296.402, 419.399 297.501 C415.152 303.407, 409.525 307.625, 411.958 303.079 C412.523 302.022, 413.42 298.085, 413.95 294.329 C414.663 289.275, 415.482 287.039, 417.099 285.725 C420.1 283.286, 418.785 282.448, 414.142 283.839 C408.629 285.491, 405.633 288.181, 401.399 295.28 C396.716 303.132, 394.146 306, 391.794 306 C388.341 306, 388.829 303.188, 393.923 293.738 C396.715 288.558, 399 283.992, 399 283.591 C399 283.189, 398.013 283.005, 396.806 283.18 C395.334 283.395, 393.606 285.324, 391.556 289.041 C384.963 300.997, 380.54 306, 376.566 306 C373.695 306, 374.938 302.221, 380.573 293.814 C382.431 291.043, 384.289 288.271, 386.146 285.5 C384.872 285.405, 383.598 285.31, 382.323 285.215 C375.856 284.733, 375.556 284.418, 377.854 280.523 C380.031 276.833, 379.274 275.248, 376.138 276.926 C374.033 278.053, 372.694 280.696, 373.538 282.061 C374.844 284.175, 362.921 302.472, 358.872 304.566 C352.773 307.72, 348.69 305.585, 350.598 300.239 C351.246 298.423, 352.719 297.353, 355.831 296.437 C362.962 294.339, 367.165 289.046, 364.965 284.934 C362.191 279.751, 351.422 286.09, 347.481 295.228 C345.047 300.87, 340.2 306, 337.304 306 C333.964 306, 334.4 303.773, 339.094 296.862 C343.806 289.923, 345.323 285.723, 343.701 284.101 C342.158 282.558, 338.738 282.731, 336.441 284.468 C332.82 287.207, 333.025 286.015, 337.468 278.5 C338.946 276, 340.424 273.5, 341.902 271 C341.002 271.012, 340.102 271.023, 339.201 271.035 C336.739 271.066, 335.599 272.709, 326.321 289.594 C316.505 307.46, 316.238 308.108, 318.821 307.81 C320.948 307.564, 322.118 306.31, 324.5 301.725 C328.895 293.264, 341 281.626, 341 285.862 C341 286.335, 338.75 290.042, 336 294.099 C330.724 301.883, 329.719 306.155, 332.75 307.92 C335.056 309.263, 335.482 309.243, 339.401 307.606 C339.401 307.606, 339.401 307.606, 339.401 307.606 Z "
     stroke="black"
     stroke-width="1"
     fill="none"
     id="path10" />
  <path
     d="M303.977 313.012 C311.329 309.261, 321.553 298.22, 319.539 296.206 C319.16 295.827, 318.351 296.408, 317.742 297.497 C315.465 301.565, 307.662 308.985, 303.587 310.958 C300.971 312.224, 297.361 313, 294.084 313 C289.372 313, 288.419 312.619, 285.278 309.478 C281.94 306.14, 281.78 305.671, 282.209 300.488 C282.881 292.389, 289.387 279.961, 296.691 272.825 C306.207 263.528, 315.595 259.738, 319.481 263.624 C325.354 269.497, 304.478 297.7, 296.518 294.645 C292.85 293.238, 295.78 287.427, 302.201 283.373 C304.908 281.664, 305.899 280.499, 305.222 279.822 C302.922 277.522, 293 287.775, 293 292.45 C293 299.783, 304.025 297.802, 312.833 288.886 C317.917 283.741, 321.334 278.182, 323.082 272.215 C324.158 268.544, 324.103 267.438, 322.697 264.492 C320.843 260.602, 317.964 259.473, 311.957 260.279 C305.318 261.169, 298.809 265.034, 291.5 272.423 C277.419 286.66, 273.012 304.026, 281.464 311.966 C286.188 316.405, 296.397 316.879, 303.977 313.012 C303.977 313.012, 303.977 313.012, 303.977 313.012 Z "
     stroke="black"
     stroke-width="1"
     fill="none"
     id="path11" />
  <path
     d="M213.75 292.92 C211.558 291.643, 211.478 287.678, 213.608 285.91 C214.976 284.775, 215.428 284.865, 216.63 286.509 C217.408 287.572, 217.605 289.003, 217.522 289.803 C217.439 290.603, 217.546 291.851, 217 292.582 C216.007 293.911, 216.167 294.327, 213.75 292.92 C213.75 292.92, 213.75 292.92, 213.75 292.92 Z "
     stroke="black"
     stroke-width="1"
     fill="none"
     id="path12" />
  <path
     d="M203.667 305.333 C201.662 303.328, 204.825 293.037, 208.342 290.128 C209.763 288.951, 210 288.976, 210 290.305 C210 290.791, 211.041 292.886, 212.093 293.918 C212.886 294.697, 213.518 294.774, 214.226 294.895 C218.049 295.552, 215.532 297.506, 212.714 301.122 C209.614 305.099, 205.262 306.929, 203.667 305.333 Z "
     stroke="black"
     stroke-width="1"
     fill="none"
     id="path13" />
  <path
     d="M239 316.674 C239 314.259, 241.809 311.123, 245.836 309.044 C249 307.41, 249.509 308.265, 247.395 311.663 C242.988 318.749, 239 321.129, 239 316.674 Z "
     stroke="black"
     stroke-width="1"
     fill="none"
     id="path14" />
  <path
     d="M244.523 319.149 C246.186 318.135, 249.245 314.839, 251.321 311.824 C253.807 308.215, 256.402 305.766, 258.919 304.656 C263.099 302.812, 268 298.705, 268 297.048 C268 295.292, 266.135 295.878, 265.006 297.99 C263.984 299.899, 258.214 303.547, 257.44 302.774 C257.235 302.568, 259.302 298.413, 262.033 293.54 C264.765 288.667, 267 284.302, 267 283.84 C267 283.378, 266.156 283, 265.124 283 C263.805 283, 261.683 285.746, 257.974 292.25 C251.9 302.902, 249.388 306, 246.826 306 C243.29 306, 244.643 301.15, 251.223 290.232 C253.3 286.785, 255 283.748, 255 283.482 C255 283.217, 253.922 283, 252.605 283 C250.734 283, 249.615 284.137, 247.495 288.191 C243.967 294.939, 237.5 303.662, 235.057 304.97 C232.195 306.501, 230 306.219, 230 304.319 C230 303.395, 232.475 298.957, 235.5 294.457 C238.525 289.957, 241 285.989, 241 285.638 C241 285.287, 239.186 285, 236.969 285 C232.177 285, 231.108 283.291, 233.559 279.55 C235.649 276.36, 235.109 275.628, 231.639 276.947 C229.53 277.749, 228.999 278.608, 228.996 281.225 C228.992 284.624, 226.009 290.578, 223.222 292.75 C220.161 295.135, 219 294.235, 219 289.479 C219 285.663, 218.621 284.785, 216.574 283.852 C215.239 283.244, 213.07 283.016, 211.754 283.347 C208.064 284.273, 201.982 290.793, 199.435 296.552 C197.014 302.026, 192.989 306, 189.865 306 C186.947 306, 187.619 303.068, 192.026 296.58 C197.892 287.945, 198.574 283, 193.899 283 C191.45 283, 185 286.683, 185 288.082 C185 288.587, 184.523 289, 183.941 289 C183.359 289, 183.163 288.546, 183.506 287.991 C183.848 287.436, 183.845 286.086, 183.498 284.991 C182.651 282.324, 178.684 282.401, 174.655 285.162 C172.92 286.351, 172.063 286.711, 172.75 285.962 C174.629 283.915, 174.269 283, 171.584 283 C169.524 283, 168.23 284.738, 162.834 294.75 C159.35 301.212, 156.35 306.837, 156.167 307.25 C155.984 307.662, 156.884 307.998, 158.167 307.996 C160.023 307.993, 161.179 306.68, 163.817 301.578 C169.012 291.531, 183.057 279.46, 179.906 287.75 C178.911 290.366, 174.974 297.695, 170.773 304.75 C170.128 305.833, 169.482 306.917, 168.837 308 C169.678 308, 170.519 308, 171.36 308 C173.424 308, 174.47 306.9, 177.105 301.956 C180.566 295.462, 186.953 287.631, 190.21 285.888 C194.182 283.762, 194.08 286.563, 189.977 292.293 C182.015 303.411, 181.697 308, 188.889 308 C191.577 308, 193.507 307.259, 195.405 305.5 C198.364 302.759, 199.13 302.435, 198.75 304.089 C198.612 304.688, 199.759 306.143, 201.299 307.321 C202.232 308.035, 203.28 308.217, 204.311 308.428 C205.739 308.252, 206.539 308.142, 207.76 307.482 C209.775 306.392, 212.954 303.475, 214.826 301 C218.357 296.331, 220.749 294.976, 221.972 296.954 C222.694 298.123, 228.01 292.093, 228.376 289.689 C228.894 286.275, 231.15 285.177, 233.976 286.964 C235.235 287.76, 235.119 288.347, 233.194 290.952 C225.368 301.537, 224.056 305.889, 228.049 308.026 C230.841 309.521, 236.352 307.639, 238.984 304.293 C240.761 302.034, 241 301.96, 241 303.665 C241 304.729, 241.47 306.07, 242.046 306.645 C242.773 307.373, 242.164 308.683, 240.046 310.951 C237.186 314.013, 236.004 318.671, 237.667 320.333 C238.829 321.496, 241.403 321.051, 244.523 319.149 C244.523 319.149, 244.523 319.149, 244.523 319.149 Z "
     stroke="black"
     stroke-width="1"
     fill="none"
     id="path15" />
  <path
     d="M155.543 327.523 C162.057 324.336, 164.857 321.45, 163.109 319.726 C162.125 318.756, 161.582 318.884, 160.509 320.337 C154.082 329.04, 138.395 331.307, 131.965 324.463 C126.763 318.925, 128.604 302.651, 136.116 287.771 C144.798 270.571, 153.448 262.25, 161.649 263.207 C163.725 263.45, 164.901 263.196, 164.689 262.551 C164.5 261.973, 162.453 261.361, 160.141 261.191 C154.945 260.809, 147.601 264.034, 140.311 269.898 C135.422 273.831, 126.385 284.845, 122.585 291.5 C121.643 293.15, 121.157 293.6, 121.505 292.5 C125.382 280.235, 125.421 273.005, 121.64 267.235 C118.261 262.079, 112.194 259.646, 104.153 260.221 C95.3626 260.85, 89.7933 263.445, 82.2539 270.425 C74.0767 277.996, 68.9932 287.772, 69.0153 295.884 C69.0237 298.973, 69.3612 301.995, 69.7653 302.6 C70.8833 304.275, 74.6038 306, 77.0964 306 C80.3809 306, 87.2985 301.608, 90.3819 297.566 C93.6194 293.321, 97.9766 284.216, 97.9902 281.667 C98.0083 278.265, 95.7044 280.567, 94.5533 285.1 C93.1103 290.783, 89.902 296.001, 85.4433 299.916 C81.2974 303.556, 77.9427 304.575, 75.1049 303.056 C67.1765 298.813, 76.8477 278.081, 91.4385 268.042 C96.9304 264.264, 105.845 261.693, 110.455 262.557 C114.637 263.342, 119 266.484, 119 268.712 C119 270.78, 104.436 298.997, 99.6379 306.226 C95.0198 313.184, 88.1712 318, 82.8959 318 C80.013 318, 78.9865 317.533, 78.5 316 C77.8031 313.804, 75.9909 313.257, 76.0153 315.25 C76.0636 319.195, 80.976 321.242, 87.0951 319.867 C95.6697 317.941, 103.801 309.598, 111.332 295 C114.312 289.225, 117.555 282.25, 118.54 279.5 C121.088 272.384, 122 271.871, 122 277.553 C122 286.513, 116.561 302.045, 110.38 310.74 C106.974 315.531, 106.162 318, 107.994 318 C109.375 318, 113.198 312.306, 122.366 296.592 C127.671 287.499, 132.488 280.733, 137.165 275.806 C143.84 268.773, 143.928 268.717, 139.527 274.316 C134.247 281.033, 127.937 293.105, 125.611 300.939 C123.537 307.923, 123.525 318.197, 125.586 322.54 C127.237 326.019, 130.494 328.661, 134.914 330.106 C139.39 331.57, 149.981 330.244, 155.543 327.523 C155.543 327.523, 155.543 327.523, 155.543 327.523 Z "
     stroke="black"
     stroke-width="1"
     fill="none"
     id="path16" />
  <path
     d="M0 169 C0 112.667, 0 56.3333, 0 0 C87.6667 0, 175.333 0, 263 0 C350.667 0, 438.333 0, 526 0 C526 56.3333, 526 112.667, 526 169 C526 225.333, 526 281.667, 526 338 C438.333 338, 350.667 338, 263 338 C175.333 338, 87.6667 338, 0 338 C0 281.667, 0 225.333, 0 169 Z "
     stroke="black"
     stroke-width="1"
     fill="none"
     id="path17" />
  <path
     d="M303 133 C303 41.1186, 302.835 30, 301.467 30 C295.199 30, 279.239 43.3594, 271.374 55.1892 C265.958 63.3359, 259.692 76.6457, 257.924 83.7587 C257.489 85.5117, 257.053 87.2646, 256.617 89.0175 C255.52 86.6473, 254.422 84.2772, 253.324 81.9071 C248.634 71.7816, 242.518 63.6654, 232.26 53.9543 C218.227 40.6681, 201.187 31.9357, 182.5 28.4531 C170.087 26.1398, 147.8 26.8703, 136.5 29.961 C100.446 39.8218, 72.32 68.1467, 62.4843 104.5 C59.9371 113.915, 59.383 137.477, 61.4509 148.444 C65.9926 172.532, 78.294 193.781, 96.8472 209.586 C105.758 217.178, 124.225 226.782, 136.043 229.972 C153.174 234.595, 175.535 234.506, 189.743 229.758 C191.995 229.005, 194.248 228.253, 196.5 227.5 C196.5 225.667, 196.5 223.833, 196.5 222 C196.5 217.604, 196.199 216.579, 195 216.892 C194.175 217.107, 190.125 218.167, 186 219.246 C176.235 221.802, 153.922 222.038, 143.254 219.698 C109.494 212.295, 82.1853 185.39, 73.8295 151.301 C70.7669 138.807, 70.8236 120.898, 73.965 108.5 C82.2455 75.8194, 106.78 50.6462, 138.9 41.8731 C149.865 38.8783, 169.955 38.2018, 181.066 40.4532 C204.751 45.2525, 224.862 58.5193, 237.822 77.895 C248.418 93.7363, 252 106.51, 252 128.458 C252 132.972, 252 137.486, 252 142 C253.833 142, 255.667 142, 257.5 142 C259.333 142, 261.167 142, 263 142 C263.006 137.917, 263.013 133.833, 263.02 129.75 C263.069 98.6037, 270.728 73.5874, 285.778 55.4111 C287.685 53.1074, 289.593 50.8037, 291.5 48.5 C291.585 79.75, 291.67 111, 291.755 142.25 C291.84 173.5, 291.925 204.75, 292.01 236 C293.842 236, 295.673 236, 297.505 236 C299.337 236, 301.168 236, 303 236 C303 201.667, 303 167.333, 303 133 Z "
     stroke="black"
     stroke-width="1"
     fill="none"
     id="path18" />
</svg>
